<?xml version="1.0" encoding="UTF-8" standalone="no"?>
<svg
   xmlns:dc="http://purl.org/dc/elements/1.1/"
   xmlns:cc="http://creativecommons.org/ns#"
   xmlns:rdf="http://www.w3.org/1999/02/22-rdf-syntax-ns#"
   xmlns:svg="http://www.w3.org/2000/svg"
   xmlns="http://www.w3.org/2000/svg"
   viewBox="0 0 1229.3333 410.66666"
   height="410.66666"
   width="1229.3333"
   xml:space="preserve"
   id="svg2"
   version="1.1"><metadata
     id="metadata8"><rdf:RDF><cc:Work
         rdf:about=""><dc:format>image/svg+xml</dc:format><dc:type
           rdf:resource="http://purl.org/dc/dcmitype/StillImage" /></cc:Work></rdf:RDF></metadata><defs
     id="defs6"><clipPath
       id="clipPath20"
       clipPathUnits="userSpaceOnUse"><path
         id="path18"
         d="M 0,0 H 922 V 308 H 0 Z" /></clipPath></defs><g
     transform="matrix(1.3333333,0,0,-1.3333333,0,410.66667)"
     id="g10"><g
       id="g12" /><g
       id="g14"><g
         clip-path="url(#clipPath20)"
         id="g16"><path
           id="path22"
           style="fill:#ffffff;fill-opacity:1;fill-rule:nonzero;stroke:none"
           d="M 0,308 H 922 V 0 H 0 Z" /></g></g><g
       id="g24"><g
         transform="matrix(7.874016e-5,0,0,-7.874016e-5,3,307)"
         id="g26"><path
           id="path28"
           style="fill:none;stroke:#0c445e;stroke-width:28575;stroke-linecap:butt;stroke-linejoin:miter;stroke-miterlimit:8;stroke-dasharray:none;stroke-opacity:1"
           d="M 0,0 H 11658600 V 3810000 H 0 Z" /></g><g
         transform="translate(10.35843,-273)"
         id="g30"><text
           id="text34"
           style="font-variant:normal;font-weight:normal;font-size:16px;font-family:ArialMT;-inkscape-font-specification:ArialMT;writing-mode:lr-tb;fill:#000000;fill-opacity:1;fill-rule:nonzero;stroke:none"
           transform="matrix(1,0,0,-1,0,308)"><tspan
             id="tspan32"
             y="0"
             x="0 9 12.992">0.0</tspan></text>
</g><g
         transform="translate(10.35843,-73)"
         id="g36"><text
           id="text40"
           style="font-variant:normal;font-weight:normal;font-size:16px;font-family:ArialMT;-inkscape-font-specification:ArialMT;writing-mode:lr-tb;fill:#000000;fill-opacity:1;fill-rule:nonzero;stroke:none"
           transform="matrix(1,0,0,-1,0,308)"><tspan
             id="tspan38"
             y="0"
             x="0 9 12.992">0.8</tspan></text>
</g><g
         transform="translate(10.35843,-123)"
         id="g42"><text
           id="text46"
           style="font-variant:normal;font-weight:normal;font-size:16px;font-family:ArialMT;-inkscape-font-specification:ArialMT;writing-mode:lr-tb;fill:#000000;fill-opacity:1;fill-rule:nonzero;stroke:none"
           transform="matrix(1,0,0,-1,0,308)"><tspan
             id="tspan44"
             y="0"
             x="0 9 12.992">0.6</tspan></text>
</g><g
         transform="translate(10.35843,-173)"
         id="g48"><text
           id="text52"
           style="font-variant:normal;font-weight:normal;font-size:16px;font-family:ArialMT;-inkscape-font-specification:ArialMT;writing-mode:lr-tb;fill:#000000;fill-opacity:1;fill-rule:nonzero;stroke:none"
           transform="matrix(1,0,0,-1,0,308)"><tspan
             id="tspan50"
             y="0"
             x="0 9 12.992">0.4</tspan></text>
</g><g
         transform="translate(10.35843,-223)"
         id="g54"><text
           id="text58"
           style="font-variant:normal;font-weight:normal;font-size:16px;font-family:ArialMT;-inkscape-font-specification:ArialMT;writing-mode:lr-tb;fill:#000000;fill-opacity:1;fill-rule:nonzero;stroke:none"
           transform="matrix(1,0,0,-1,0,308)"><tspan
             id="tspan56"
             y="0"
             x="0 9 12.992">0.2</tspan></text>
</g><g
         transform="matrix(7.874016e-5,0,0,-7.874016e-5,46,242)"
         id="g60"><path
           id="path62"
           style="fill:none;stroke:#bfbfbf;stroke-width:19050;stroke-linecap:butt;stroke-linejoin:miter;stroke-miterlimit:8;stroke-dasharray:none;stroke-opacity:1"
           d="M 0,0 10908000,1" /></g><g
         transform="matrix(7.874016e-5,0,0,-7.874016e-5,46,192)"
         id="g64"><path
           id="path66"
           style="fill:none;stroke:#bfbfbf;stroke-width:19050;stroke-linecap:butt;stroke-linejoin:miter;stroke-miterlimit:8;stroke-dasharray:none;stroke-opacity:1"
           d="M 0,0 10908000,1" /></g><g
         transform="matrix(7.874016e-5,0,0,-7.874016e-5,46,142)"
         id="g68"><path
           id="path70"
           style="fill:none;stroke:#bfbfbf;stroke-width:19050;stroke-linecap:butt;stroke-linejoin:miter;stroke-miterlimit:8;stroke-dasharray:none;stroke-opacity:1"
           d="M 0,0 10908000,1" /></g><g
         transform="matrix(7.874016e-5,0,0,-7.874016e-5,46,92)"
         id="g72"><path
           id="path74"
           style="fill:none;stroke:#bfbfbf;stroke-width:19050;stroke-linecap:butt;stroke-linejoin:miter;stroke-miterlimit:8;stroke-dasharray:none;stroke-opacity:1"
           d="M 0,0 10908000,1" /></g><g
         transform="matrix(7.874016e-5,0,0,-7.874016e-5,46,42)"
         id="g76"><path
           id="path78"
           style="fill:none;stroke:#bfbfbf;stroke-width:19050;stroke-linecap:butt;stroke-linejoin:miter;stroke-miterlimit:8;stroke-dasharray:none;stroke-opacity:1"
           d="M 0,0 10908000,1" /></g><g
         transform="translate(63.11638,-293)"
         id="g80"><text
           id="text84"
           style="font-variant:normal;font-weight:bold;font-size:18px;font-family:Arial;-inkscape-font-specification:Arial-BoldMT;writing-mode:lr-tb;fill:#000000;fill-opacity:1;fill-rule:nonzero;stroke:none"
           transform="matrix(1,0,0,-1,0,308)"><tspan
             id="tspan82"
             y="0"
             x="0 12.9996 24.0012 35.0028 42.0084">Angry</tspan></text>
</g><path
         id="path86"
         style="fill:#003867;fill-opacity:1;fill-rule:nonzero;stroke:none"
         d="M 10,290 H 33 V 278 H 10 Z" /><g
         transform="translate(184.8559,-30)"
         id="g88"><text
           id="text92"
           style="font-variant:normal;font-weight:bold;font-size:16px;font-family:Arial;-inkscape-font-specification:Arial-BoldMT;writing-mode:lr-tb;fill:#000000;fill-opacity:1;fill-rule:nonzero;stroke:none"
           transform="matrix(1,0,0,-1,0,308)"><tspan
             id="tspan90"
             y="0"
             x="0 12 22 30.992001 34.992001 43.984001 48.992001 60.992001 70.991997 84.991997 94.991997 103.984">Box + Number</tspan></text>
</g><path
         id="path94"
         style="fill:#00888f;fill-opacity:1;fill-rule:nonzero;stroke:none"
         d="m 153,290 h 22 v -12 h -22 z" /><g
         transform="translate(42.35732,-30)"
         id="g96"><text
           id="text100"
           style="font-variant:normal;font-weight:bold;font-size:16px;font-family:Arial;-inkscape-font-specification:Arial-BoldMT;writing-mode:lr-tb;fill:#000000;fill-opacity:1;fill-rule:nonzero;stroke:none"
           transform="matrix(1,0,0,-1,0,308)"><tspan
             id="tspan98"
             y="0"
             x="0 12 23.007999">GPT</tspan></text>
</g><g
         transform="translate(75.35732,-30)"
         id="g102"><text
           id="text106"
           style="font-variant:normal;font-weight:bold;font-size:16px;font-family:Arial;-inkscape-font-specification:Arial-BoldMT;writing-mode:lr-tb;fill:#000000;fill-opacity:1;fill-rule:nonzero;stroke:none"
           transform="matrix(1,0,0,-1,0,308)"><tspan
             id="tspan104"
             y="0"
             x="0">-</tspan></text>
</g><g
         transform="translate(80.35732,-30)"
         id="g108"><text
           id="text112"
           style="font-variant:normal;font-weight:bold;font-size:16px;font-family:Arial;-inkscape-font-specification:Arial-BoldMT;writing-mode:lr-tb;fill:#000000;fill-opacity:1;fill-rule:nonzero;stroke:none"
           transform="matrix(1,0,0,-1,0,308)"><tspan
             id="tspan110"
             y="0"
             x="0 9 20">4V+</tspan></text>
</g><g
         transform="translate(109.3573,-30)"
         id="g114"><text
           id="text118"
           style="font-variant:normal;font-weight:bold;font-size:16px;font-family:Arial;-inkscape-font-specification:Arial-BoldMT;writing-mode:lr-tb;fill:#000000;fill-opacity:1;fill-rule:nonzero;stroke:none"
           transform="matrix(1,0,0,-1,0,308)"><tspan
             id="tspan116"
             y="0"
             x="0 11 20.992001">SoV</tspan></text>
</g><path
         id="path120"
         style="fill:#72d44c;fill-opacity:1;fill-rule:nonzero;stroke:none"
         d="m 304,290 h 23 v -12 h -23 z" /><g
         transform="translate(335.0258,-30)"
         id="g122"><text
           id="text126"
           style="font-variant:normal;font-weight:bold;font-size:16px;font-family:Arial;-inkscape-font-specification:Arial-BoldMT;writing-mode:lr-tb;fill:#000000;fill-opacity:1;fill-rule:nonzero;stroke:none"
           transform="matrix(1,0,0,-1,0,308)"><tspan
             id="tspan124"
             y="0"
             x="0 12 22">Box</tspan></text>
</g><path
         id="path128"
         style="fill:#9fbdab;fill-opacity:1;fill-rule:nonzero;stroke:none"
         d="m 373,290 h 23 v -12 h -23 z" /><g
         transform="translate(404.6063,-30)"
         id="g130"><text
           id="text134"
           style="font-variant:normal;font-weight:bold;font-size:16px;font-family:Arial;-inkscape-font-specification:Arial-BoldMT;writing-mode:lr-tb;fill:#000000;fill-opacity:1;fill-rule:nonzero;stroke:none"
           transform="matrix(1,0,0,-1,0,308)"><tspan
             id="tspan132"
             y="0"
             x="0 12 20.992001 29.983999 38.976002 42.976002 46.976002 56.976002">Baseline</tspan></text>
</g><path
         id="path136"
         style="fill:#003867;fill-opacity:1;fill-rule:nonzero;stroke:none"
         d="m 43,104 c 0,4.4183 5.14873,8 11.5,8 6.35127,0 11.5,-3.5817 11.5,-8 0,-4.41828 -5.14873,-8 -11.5,-8 -6.35127,0 -11.5,3.58172 -11.5,8 z" /><path
         id="path138"
         style="fill:#003867;fill-opacity:1;fill-rule:nonzero;stroke:none"
         d="M 43,104 H 66 V 42 H 43 Z" /><path
         id="path140"
         style="fill:#00888f;fill-opacity:1;fill-rule:nonzero;stroke:none"
         d="m 69,74.5 c 0,4.69442 4.92487,8.5 11,8.5 6.07513,0 11,-3.80558 11,-8.5 C 91,69.80558 86.07513,66 80,66 73.92487,66 69,69.80558 69,74.5 Z" /><path
         id="path142"
         style="fill:#00888f;fill-opacity:1;fill-rule:nonzero;stroke:none"
         d="M 69,73 H 91 V 42 H 69 Z" /><path
         id="path144"
         style="fill:#72d44c;fill-opacity:1;fill-rule:nonzero;stroke:none"
         d="m 96,66 c 0,4.41828 4.9249,8 11,8 6.0751,0 11,-3.58172 11,-8 0,-4.41828 -4.9249,-8 -11,-8 -6.0751,0 -11,3.58172 -11,8 z" /><path
         id="path146"
         style="fill:#72d44c;fill-opacity:1;fill-rule:nonzero;stroke:none"
         d="m 96,66 h 22 V 42 H 96 Z" /><path
         id="path148"
         style="fill:#003867;fill-opacity:1;fill-rule:nonzero;stroke:none"
         d="m 164,84 c 0,4.41828 5.1487,8 11.5,8 6.3513,0 11.5,-3.58172 11.5,-8 0,-4.41828 -5.1487,-8 -11.5,-8 -6.3513,0 -11.5,3.58172 -11.5,8 z" /><path
         id="path150"
         style="fill:#003867;fill-opacity:1;fill-rule:nonzero;stroke:none"
         d="m 164,84 h 23 V 42 h -23 z" /><path
         id="path152"
         style="fill:#00888f;fill-opacity:1;fill-rule:nonzero;stroke:none"
         d="m 190,135 c 0,4.4183 4.9249,8 11,8 6.0751,0 11,-3.5817 11,-8 0,-4.4183 -4.9249,-8 -11,-8 -6.0751,0 -11,3.5817 -11,8 z" /><path
         id="path154"
         style="fill:#00888f;fill-opacity:1;fill-rule:nonzero;stroke:none"
         d="m 190,134 h 22 V 42 h -22 z" /><path
         id="path156"
         style="fill:#72d44c;fill-opacity:1;fill-rule:nonzero;stroke:none"
         d="m 216,133 c 0,4.4183 4.9249,8 11,8 6.0751,0 11,-3.5817 11,-8 0,-4.4183 -4.9249,-8 -11,-8 -6.0751,0 -11,3.5817 -11,8 z" /><path
         id="path158"
         style="fill:#72d44c;fill-opacity:1;fill-rule:nonzero;stroke:none"
         d="m 216,132 h 22 V 42 h -22 z" /><g
         transform="translate(184.3579,-293)"
         id="g160"><text
           id="text164"
           style="font-variant:normal;font-weight:bold;font-size:18px;font-family:Arial;-inkscape-font-specification:Arial-BoldMT;writing-mode:lr-tb;fill:#000000;fill-opacity:1;fill-rule:nonzero;stroke:none"
           transform="matrix(1,0,0,-1,0,308)"><tspan
             id="tspan162"
             y="0"
             x="0 12.9996 18.0072 28.000799 39.002399 50.004002 59.997601">Disgust</tspan></text>
</g><path
         id="path166"
         style="fill:#70bdab;fill-opacity:1;fill-rule:nonzero;stroke:none"
         d="m 242,84 c 0,4.41828 4.9249,8 11,8 6.0751,0 11,-3.58172 11,-8 0,-4.41828 -4.9249,-8 -11,-8 -6.0751,0 -11,3.58172 -11,8 z" /><path
         id="path168"
         style="fill:#70bdab;fill-opacity:1;fill-rule:nonzero;stroke:none"
         d="m 242,84 h 22 V 42 h -22 z" /><path
         id="path170"
         style="fill:#003867;fill-opacity:1;fill-rule:nonzero;stroke:none"
         d="m 291,56.5 c 0,4.69442 4.9249,8.5 11,8.5 6.0751,0 11,-3.80558 11,-8.5 0,-4.69442 -4.9249,-8.5 -11,-8.5 -6.0751,0 -11,3.80558 -11,8.5 z" /><path
         id="path172"
         style="fill:#003867;fill-opacity:1;fill-rule:nonzero;stroke:none"
         d="m 291,58 h 22 V 42 h -22 z" /><path
         id="path174"
         style="fill:#70bdab;fill-opacity:1;fill-rule:nonzero;stroke:none"
         d="m 366,42 v 8 c 0,4.41828 4.9249,8 11,8 6.0751,0 11,-3.58172 11,-8 v -8 z" /><g
         transform="translate(321.3037,-293)"
         id="g176"><text
           id="text180"
           style="font-variant:normal;font-weight:bold;font-size:18px;font-family:Arial;-inkscape-font-specification:Arial-BoldMT;writing-mode:lr-tb;fill:#000000;fill-opacity:1;fill-rule:nonzero;stroke:none"
           transform="matrix(1,0,0,-1,0,308)"><tspan
             id="tspan178"
             y="0"
             x="0 10.9998 20.9916 30.9834">Fear</tspan></text>
</g><path
         id="path182"
         style="fill:#00888f;fill-opacity:1;fill-rule:nonzero;stroke:none"
         d="m 316,42 v 7.5 c 0,4.14214 4.9249,7.5 11,7.5 6.0751,0 11,-3.35786 11,-7.5 V 42 Z" /><path
         id="path184"
         style="fill:#003867;fill-opacity:1;fill-rule:nonzero;stroke:none"
         d="m 416,162.5 c 0,4.6944 4.9249,8.5 11,8.5 6.0751,0 11,-3.8056 11,-8.5 0,-4.6944 -4.9249,-8.5 -11,-8.5 -6.0751,0 -11,3.8056 -11,8.5 z" /><path
         id="path186"
         style="fill:#003867;fill-opacity:1;fill-rule:nonzero;stroke:none"
         d="m 416,161 h 22 V 42 h -22 z" /><path
         id="path188"
         style="fill:#00888f;fill-opacity:1;fill-rule:nonzero;stroke:none"
         d="m 441,173 c 0,4.4183 4.9249,8 11,8 6.0751,0 11,-3.5817 11,-8 0,-4.4183 -4.9249,-8 -11,-8 -6.0751,0 -11,3.5817 -11,8 z" /><path
         id="path190"
         style="fill:#00888f;fill-opacity:1;fill-rule:nonzero;stroke:none"
         d="m 441,172 h 22 V 42 h -22 z" /><path
         id="path192"
         style="fill:#72d44c;fill-opacity:1;fill-rule:nonzero;stroke:none"
         d="m 467,142 c 0,4.4183 4.9249,8 11,8 6.0751,0 11,-3.5817 11,-8 0,-4.4183 -4.9249,-8 -11,-8 -6.0751,0 -11,3.5817 -11,8 z" /><path
         id="path194"
         style="fill:#72d44c;fill-opacity:1;fill-rule:nonzero;stroke:none"
         d="m 467,141 h 22 V 42 h -22 z" /><g
         transform="translate(439.7657,-293)"
         id="g196"><text
           id="text200"
           style="font-variant:normal;font-weight:bold;font-size:18px;font-family:Arial;-inkscape-font-specification:Arial-BoldMT;writing-mode:lr-tb;fill:#000000;fill-opacity:1;fill-rule:nonzero;stroke:none"
           transform="matrix(1,0,0,-1,0,308)"><tspan
             id="tspan198"
             y="0"
             x="0 12.9996 22.9932 33.994801 44.996399">Happy</tspan></text>
</g><path
         id="path202"
         style="fill:#70bdab;fill-opacity:1;fill-rule:nonzero;stroke:none"
         d="m 494,178.5 c 0,4.6944 4.9249,8.5 11,8.5 6.0751,0 11,-3.8056 11,-8.5 0,-4.6944 -4.9249,-8.5 -11,-8.5 -6.0751,0 -11,3.8056 -11,8.5 z" /><path
         id="path204"
         style="fill:#70bdab;fill-opacity:1;fill-rule:nonzero;stroke:none"
         d="m 494,180 h 22 V 42 h -22 z" /><path
         id="path206"
         style="fill:#003867;fill-opacity:1;fill-rule:nonzero;stroke:none"
         d="m 546,68.5 c 0,4.69442 4.9249,8.5 11,8.5 6.0751,0 11,-3.80558 11,-8.5 0,-4.69442 -4.9249,-8.5 -11,-8.5 -6.0751,0 -11,3.80558 -11,8.5 z" /><path
         id="path208"
         style="fill:#003867;fill-opacity:1;fill-rule:nonzero;stroke:none"
         d="m 546,67 h 22 V 42 h -22 z" /><path
         id="path210"
         style="fill:#72d44c;fill-opacity:1;fill-rule:nonzero;stroke:none"
         d="m 599,51.5 c 0,4.69442 4.9249,8.5 11,8.5 6.0751,0 11,-3.80558 11,-8.5 0,-4.69442 -4.9249,-8.5 -11,-8.5 -6.0751,0 -11,3.80558 -11,8.5 z" /><path
         id="path212"
         style="fill:#72d44c;fill-opacity:1;fill-rule:nonzero;stroke:none"
         d="m 599,50 h 22 v -8 h -22 z" /><path
         id="path214"
         style="fill:#70bdab;fill-opacity:1;fill-rule:nonzero;stroke:none"
         d="m 625,42 v 5.5 c 0,3.03757 4.9249,5.5 11,5.5 6.0751,0 11,-2.46243 11,-5.5 V 42 Z" /><g
         transform="translate(583.4445,-294)"
         id="g216"><text
           id="text220"
           style="font-variant:normal;font-weight:bold;font-size:18px;font-family:Arial;-inkscape-font-specification:Arial-BoldMT;writing-mode:lr-tb;fill:#000000;fill-opacity:1;fill-rule:nonzero;stroke:none"
           transform="matrix(1,0,0,-1,0,308)"><tspan
             id="tspan218"
             y="0"
             x="0 12.0006 22.003201">Sad</tspan></text>
</g><path
         id="path222"
         style="fill:#003867;fill-opacity:1;fill-rule:nonzero;stroke:none"
         d="m 670,108 c 0,4.4183 5.1487,8 11.5,8 6.3513,0 11.5,-3.5817 11.5,-8 0,-4.4183 -5.1487,-8 -11.5,-8 -6.3513,0 -11.5,3.5817 -11.5,8 z" /><path
         id="path224"
         style="fill:#003867;fill-opacity:1;fill-rule:nonzero;stroke:none"
         d="m 670,109 h 23 V 42 h -23 z" /><path
         id="path226"
         style="fill:#00888f;fill-opacity:1;fill-rule:nonzero;stroke:none"
         d="m 697,112.5 c 0,4.6944 4.9249,8.5 11,8.5 6.0751,0 11,-3.8056 11,-8.5 0,-4.6944 -4.9249,-8.5 -11,-8.5 -6.0751,0 -11,3.8056 -11,8.5 z" /><path
         id="path228"
         style="fill:#00888f;fill-opacity:1;fill-rule:nonzero;stroke:none"
         d="m 697,112 h 22 V 42 h -22 z" /><path
         id="path230"
         style="fill:#72d44c;fill-opacity:1;fill-rule:nonzero;stroke:none"
         d="m 723,71.5 c 0,4.69442 5.1487,8.5 11.5,8.5 6.3513,0 11.5,-3.80558 11.5,-8.5 0,-4.69442 -5.1487,-8.5 -11.5,-8.5 -6.3513,0 -11.5,3.80558 -11.5,8.5 z" /><path
         id="path232"
         style="fill:#72d44c;fill-opacity:1;fill-rule:nonzero;stroke:none"
         d="m 723,71 h 23 V 42 h -23 z" /><g
         transform="translate(686.6461,-293)"
         id="g234"><text
           id="text238"
           style="font-variant:normal;font-weight:bold;font-size:18px;font-family:Arial;-inkscape-font-specification:Arial-BoldMT;writing-mode:lr-tb;fill:#000000;fill-opacity:1;fill-rule:nonzero;stroke:none"
           transform="matrix(1,0,0,-1,0,308)"><tspan
             id="tspan236"
             y="0"
             x="0 12.0006 22.9932 29.989799 40.982399 47.979 52.9776 62.980202">Surprise</tspan></text>
</g><path
         id="path240"
         style="fill:#70bdab;fill-opacity:1;fill-rule:nonzero;stroke:none"
         d="m 749,107 c 0,4.4183 4.9249,8 11,8 6.0751,0 11,-3.5817 11,-8 0,-4.4183 -4.9249,-8 -11,-8 -6.0751,0 -11,3.5817 -11,8 z" /><path
         id="path242"
         style="fill:#70bdab;fill-opacity:1;fill-rule:nonzero;stroke:none"
         d="m 749,107 h 22 V 42 h -22 z" /><path
         id="path244"
         style="fill:#003867;fill-opacity:1;fill-rule:nonzero;stroke:none"
         d="m 802,278.5 c 0,4.6944 4.9249,8.5 11,8.5 6.0751,0 11,-3.8056 11,-8.5 0,-4.6944 -4.9249,-8.5 -11,-8.5 -6.0751,0 -11,3.8056 -11,8.5 z" /><path
         id="path246"
         style="fill:#003867;fill-opacity:1;fill-rule:nonzero;stroke:none"
         d="m 802,280 h 22 V 42 h -22 z" /><path
         id="path248"
         style="fill:#00888f;fill-opacity:1;fill-rule:nonzero;stroke:none"
         d="m 828,242 c 0,4.4183 4.9249,8 11,8 6.0751,0 11,-3.5817 11,-8 0,-4.4183 -4.9249,-8 -11,-8 -6.0751,0 -11,3.5817 -11,8 z" /><path
         id="path250"
         style="fill:#00888f;fill-opacity:1;fill-rule:nonzero;stroke:none"
         d="m 828,243 h 22 V 42 h -22 z" /><path
         id="path252"
         style="fill:#72d44c;fill-opacity:1;fill-rule:nonzero;stroke:none"
         d="m 855,225.5 c 0,4.6944 4.9249,8.5 11,8.5 6.0751,0 11,-3.8056 11,-8.5 0,-4.6944 -4.9249,-8.5 -11,-8.5 -6.0751,0 -11,3.8056 -11,8.5 z" /><path
         id="path254"
         style="fill:#72d44c;fill-opacity:1;fill-rule:nonzero;stroke:none"
         d="m 855,226 h 22 V 42 h -22 z" /><g
         transform="translate(823.7931,-293)"
         id="g256"><text
           id="text260"
           style="font-variant:normal;font-weight:bold;font-size:18px;font-family:Arial;-inkscape-font-specification:Arial-BoldMT;writing-mode:lr-tb;fill:#000000;fill-opacity:1;fill-rule:nonzero;stroke:none"
           transform="matrix(1,0,0,-1,0,308)"><tspan
             id="tspan258"
             y="0"
             x="0 12.9996 22.9932 33.994801 39.992401 46.998001 56.9916">Neutral</tspan></text>
</g><path
         id="path262"
         style="fill:#70bdab;fill-opacity:1;fill-rule:nonzero;stroke:none"
         d="m 881,203.5 c 0,4.6944 4.9249,8.5 11,8.5 6.0751,0 11,-3.8056 11,-8.5 0,-4.6944 -4.9249,-8.5 -11,-8.5 -6.0751,0 -11,3.8056 -11,8.5 z" /><path
         id="path264"
         style="fill:#70bdab;fill-opacity:1;fill-rule:nonzero;stroke:none"
         d="m 881,203 h 22 V 42 h -22 z" /><path
         id="path266"
         style="fill:#156082;fill-opacity:1;fill-rule:nonzero;stroke:none"
         d="m 571,43 v 5 c 0,2.76142 4.9249,5 11,5 6.0751,0 11,-2.23858 11,-5 v -5 z" /></g></g></svg>