<?xml version="1.0" encoding="UTF-8" standalone="no"?>
<svg
   xmlns:dc="http://purl.org/dc/elements/1.1/"
   xmlns:cc="http://creativecommons.org/ns#"
   xmlns:rdf="http://www.w3.org/1999/02/22-rdf-syntax-ns#"
   xmlns:svg="http://www.w3.org/2000/svg"
   xmlns="http://www.w3.org/2000/svg"
   viewBox="0 0 1293.3333 412"
   height="412"
   width="1293.3333"
   xml:space="preserve"
   id="svg2"
   version="1.1"><metadata
     id="metadata8"><rdf:RDF><cc:Work
         rdf:about=""><dc:format>image/svg+xml</dc:format><dc:type
           rdf:resource="http://purl.org/dc/dcmitype/StillImage" /></cc:Work></rdf:RDF></metadata><defs
     id="defs6"><clipPath
       id="clipPath20"
       clipPathUnits="userSpaceOnUse"><path
         id="path18"
         d="M 0,0 H 970 V 309 H 0 Z" /></clipPath></defs><g
     transform="matrix(1.3333333,0,0,-1.3333333,0,412)"
     id="g10"><g
       id="g12" /><g
       id="g14"><g
         clip-path="url(#clipPath20)"
         id="g16"><path
           id="path22"
           style="fill:#ffffff;fill-opacity:1;fill-rule:nonzero;stroke:none"
           d="M 0,309 H 970 V 0 H 0 Z" /></g></g><g
       id="g24"><g
         transform="matrix(7.874016e-5,0,0,-7.874016e-5,1,308)"
         id="g26"><path
           id="path28"
           style="fill:none;stroke:#000000;stroke-width:28575;stroke-linecap:butt;stroke-linejoin:miter;stroke-miterlimit:8;stroke-dasharray:none;stroke-opacity:1"
           d="M 0,0 H 12052300 V 3810000 H 0 Z" /></g><g
         transform="translate(8.550236,-271)"
         id="g30"><text
           id="text34"
           style="font-variant:normal;font-weight:normal;font-size:14px;font-family:ArialMT;-inkscape-font-specification:ArialMT;writing-mode:lr-tb;fill:#6b2f74;fill-opacity:1;fill-rule:nonzero;stroke:none"
           transform="matrix(1,0,0,-1,0,309)"><tspan
             id="tspan32"
             y="0"
             x="0 7.9995999 11.9952">0.0</tspan></text>
</g><g
         transform="translate(8.550236,-71)"
         id="g36"><text
           id="text40"
           style="font-variant:normal;font-weight:normal;font-size:14px;font-family:ArialMT;-inkscape-font-specification:ArialMT;writing-mode:lr-tb;fill:#6b2f74;fill-opacity:1;fill-rule:nonzero;stroke:none"
           transform="matrix(1,0,0,-1,0,309)"><tspan
             id="tspan38"
             y="0"
             x="0 7.9995999 11.9952">0.8</tspan></text>
</g><g
         transform="translate(8.550236,-121)"
         id="g42"><text
           id="text46"
           style="font-variant:normal;font-weight:normal;font-size:14px;font-family:ArialMT;-inkscape-font-specification:ArialMT;writing-mode:lr-tb;fill:#6b2f74;fill-opacity:1;fill-rule:nonzero;stroke:none"
           transform="matrix(1,0,0,-1,0,309)"><tspan
             id="tspan44"
             y="0"
             x="0 7.9995999 11.9952">0.6</tspan></text>
</g><g
         transform="translate(8.550236,-171)"
         id="g48"><text
           id="text52"
           style="font-variant:normal;font-weight:normal;font-size:14px;font-family:ArialMT;-inkscape-font-specification:ArialMT;writing-mode:lr-tb;fill:#6b2f74;fill-opacity:1;fill-rule:nonzero;stroke:none"
           transform="matrix(1,0,0,-1,0,309)"><tspan
             id="tspan50"
             y="0"
             x="0 7.9995999 11.9952">0.4</tspan></text>
</g><g
         transform="translate(8.550236,-221)"
         id="g54"><text
           id="text58"
           style="font-variant:normal;font-weight:normal;font-size:14px;font-family:ArialMT;-inkscape-font-specification:ArialMT;writing-mode:lr-tb;fill:#6b2f74;fill-opacity:1;fill-rule:nonzero;stroke:none"
           transform="matrix(1,0,0,-1,0,309)"><tspan
             id="tspan56"
             y="0"
             x="0 7.9995999 11.9952">0.2</tspan></text>
</g><g
         transform="matrix(7.874016e-5,0,0,-7.874016e-5,39,243)"
         id="g60"><path
           id="path62"
           style="fill:none;stroke:#bfbfbf;stroke-width:19050;stroke-linecap:butt;stroke-linejoin:miter;stroke-miterlimit:8;stroke-dasharray:none;stroke-opacity:1"
           d="M 0,0 11448000,1" /></g><g
         transform="matrix(7.874016e-5,0,0,-7.874016e-5,39,193)"
         id="g64"><path
           id="path66"
           style="fill:none;stroke:#bfbfbf;stroke-width:19050;stroke-linecap:butt;stroke-linejoin:miter;stroke-miterlimit:8;stroke-dasharray:none;stroke-opacity:1"
           d="M 0,0 11448000,1" /></g><g
         transform="matrix(7.874016e-5,0,0,-7.874016e-5,39,143)"
         id="g68"><path
           id="path70"
           style="fill:none;stroke:#bfbfbf;stroke-width:19050;stroke-linecap:butt;stroke-linejoin:miter;stroke-miterlimit:8;stroke-dasharray:none;stroke-opacity:1"
           d="M 0,0 11448000,1" /></g><g
         transform="matrix(7.874016e-5,0,0,-7.874016e-5,39,93)"
         id="g72"><path
           id="path74"
           style="fill:none;stroke:#bfbfbf;stroke-width:19050;stroke-linecap:butt;stroke-linejoin:miter;stroke-miterlimit:8;stroke-dasharray:none;stroke-opacity:1"
           d="M 0,0 11448000,1" /></g><g
         transform="matrix(7.874016e-5,0,0,-7.874016e-5,39,43)"
         id="g76"><path
           id="path78"
           style="fill:none;stroke:#bfbfbf;stroke-width:19050;stroke-linecap:butt;stroke-linejoin:miter;stroke-miterlimit:8;stroke-dasharray:none;stroke-opacity:1"
           d="M 0,0 11448000,1" /></g><g
         transform="translate(54.79228,-293)"
         id="g80"><text
           id="text84"
           style="font-variant:normal;font-weight:bold;font-size:18px;font-family:Arial;-inkscape-font-specification:Arial-BoldMT;writing-mode:lr-tb;fill:#000000;fill-opacity:1;fill-rule:nonzero;stroke:none"
           transform="matrix(1,0,0,-1,0,309)"><tspan
             id="tspan82"
             y="0"
             x="0 12.9996 24.0012 35.0028 42.0084">Angry</tspan></text>
</g><path
         id="path86"
         style="fill:#6b2f74;fill-opacity:1;fill-rule:nonzero;stroke:none"
         d="M 8,290 H 28 V 279 H 8 Z" /><g
         transform="translate(174.9938,-30)"
         id="g88"><text
           id="text92"
           style="font-variant:normal;font-weight:bold;font-size:16px;font-family:Arial;-inkscape-font-specification:Arial-BoldMT;writing-mode:lr-tb;fill:#000000;fill-opacity:1;fill-rule:nonzero;stroke:none"
           transform="matrix(1,0,0,-1,0,309)"><tspan
             id="tspan90"
             y="0"
             x="0 12 23.007999">GPT</tspan></text>
</g><g
         transform="translate(207.9938,-30)"
         id="g94"><text
           id="text98"
           style="font-variant:normal;font-weight:bold;font-size:16px;font-family:Arial;-inkscape-font-specification:Arial-BoldMT;writing-mode:lr-tb;fill:#000000;fill-opacity:1;fill-rule:nonzero;stroke:none"
           transform="matrix(1,0,0,-1,0,309)"><tspan
             id="tspan96"
             y="0"
             x="0">-</tspan></text>
</g><g
         transform="translate(212.9938,-30)"
         id="g100"><text
           id="text104"
           style="font-variant:normal;font-weight:bold;font-size:16px;font-family:Arial;-inkscape-font-specification:Arial-BoldMT;writing-mode:lr-tb;fill:#000000;fill-opacity:1;fill-rule:nonzero;stroke:none"
           transform="matrix(1,0,0,-1,0,309)"><tspan
             id="tspan102"
             y="0"
             x="0 9">4V</tspan></text>
</g><path
         id="path106"
         style="fill:#7268a6;fill-opacity:1;fill-rule:nonzero;stroke:none"
         d="m 146,290 h 20 v -11 h -20 z" /><g
         transform="translate(36.59701,-30)"
         id="g108"><text
           id="text112"
           style="font-variant:normal;font-weight:bold;font-size:16px;font-family:Arial;-inkscape-font-specification:Arial-BoldMT;writing-mode:lr-tb;fill:#000000;fill-opacity:1;fill-rule:nonzero;stroke:none"
           transform="matrix(1,0,0,-1,0,309)"><tspan
             id="tspan110"
             y="0"
             x="0 12 23.007999">GPT</tspan></text>
</g><g
         transform="translate(69.59701,-30)"
         id="g114"><text
           id="text118"
           style="font-variant:normal;font-weight:bold;font-size:16px;font-family:Arial;-inkscape-font-specification:Arial-BoldMT;writing-mode:lr-tb;fill:#000000;fill-opacity:1;fill-rule:nonzero;stroke:none"
           transform="matrix(1,0,0,-1,0,309)"><tspan
             id="tspan116"
             y="0"
             x="0">-</tspan></text>
</g><g
         transform="translate(74.59701,-30)"
         id="g120"><text
           id="text124"
           style="font-variant:normal;font-weight:bold;font-size:16px;font-family:Arial;-inkscape-font-specification:Arial-BoldMT;writing-mode:lr-tb;fill:#000000;fill-opacity:1;fill-rule:nonzero;stroke:none"
           transform="matrix(1,0,0,-1,0,309)"><tspan
             id="tspan122"
             y="0"
             x="0 9 20 29 40.992001 51 56.992001">4V+Ours</tspan></text>
</g><path
         id="path126"
         style="fill:#86a3c3;fill-opacity:1;fill-rule:nonzero;stroke:none"
         d="m 246,290 h 19 v -11 h -19 z" /><g
         transform="translate(273.3222,-30)"
         id="g128"><text
           id="text132"
           style="font-variant:normal;font-weight:bold;font-size:16px;font-family:Arial;-inkscape-font-specification:Arial-BoldMT;writing-mode:lr-tb;fill:#000000;fill-opacity:1;fill-rule:nonzero;stroke:none"
           transform="matrix(1,0,0,-1,0,309)"><tspan
             id="tspan130"
             y="0"
             x="0 10 20 28.992001 40">LLaVA</tspan></text>
</g><path
         id="path134"
         style="fill:#b6cec8;fill-opacity:1;fill-rule:nonzero;stroke:none"
         d="m 338,290 h 20 v -11 h -20 z" /><g
         transform="translate(366.7036,-30)"
         id="g136"><text
           id="text140"
           style="font-variant:normal;font-weight:bold;font-size:16px;font-family:Arial;-inkscape-font-specification:Arial-BoldMT;writing-mode:lr-tb;fill:#000000;fill-opacity:1;fill-rule:nonzero;stroke:none"
           transform="matrix(1,0,0,-1,0,309)"><tspan
             id="tspan138"
             y="0"
             x="0 11 14.992 24.983999 33.984001">Video</tspan></text>
</g><g
         transform="translate(410.7036,-30)"
         id="g142"><text
           id="text146"
           style="font-variant:normal;font-weight:bold;font-size:16px;font-family:Arial;-inkscape-font-specification:Arial-BoldMT;writing-mode:lr-tb;fill:#000000;fill-opacity:1;fill-rule:nonzero;stroke:none"
           transform="matrix(1,0,0,-1,0,309)"><tspan
             id="tspan144"
             y="0"
             x="0">-</tspan></text>
</g><g
         transform="translate(415.7036,-30)"
         id="g148"><text
           id="text152"
           style="font-variant:normal;font-weight:bold;font-size:16px;font-family:Arial;-inkscape-font-specification:Arial-BoldMT;writing-mode:lr-tb;fill:#000000;fill-opacity:1;fill-rule:nonzero;stroke:none"
           transform="matrix(1,0,0,-1,0,309)"><tspan
             id="tspan150"
             y="0"
             x="0 10 20 28.992001 40">LLaVA</tspan></text>
</g><path
         id="path154"
         style="fill:#6b2f74;fill-opacity:1;fill-rule:nonzero;stroke:none"
         d="m 37,105 c 0,4.4183 4.25329,8 9.5,8 5.24671,0 9.5,-3.5817 9.5,-8 0,-4.4183 -4.25329,-8 -9.5,-8 -5.24671,0 -9.5,3.5817 -9.5,8 z" /><path
         id="path156"
         style="fill:#6b2f74;fill-opacity:1;fill-rule:nonzero;stroke:none"
         d="M 37,104 H 56 V 43 H 37 Z" /><g
         transform="translate(38.80071,-194)"
         id="g158"><text
           id="text162"
           style="font-variant:normal;font-weight:normal;font-size:10px;font-family:ArialMT;-inkscape-font-specification:ArialMT;writing-mode:lr-tb;fill:#000000;fill-opacity:1;fill-rule:nonzero;stroke:none"
           transform="matrix(1,0,0,-1,0,309)"><tspan
             id="tspan160"
             y="0"
             x="0 6 9 15">0.24</tspan></text>
</g><g
         transform="translate(60.87764,-248)"
         id="g164"><text
           id="text168"
           style="font-variant:normal;font-weight:normal;font-size:10px;font-family:ArialMT;-inkscape-font-specification:ArialMT;writing-mode:lr-tb;fill:#000000;fill-opacity:1;fill-rule:nonzero;stroke:none"
           transform="matrix(1,0,0,-1,0,309)"><tspan
             id="tspan166"
             y="0"
             x="0 6 9 15">0.03</tspan></text>
</g><path
         id="path170"
         style="fill:#86a3c3;fill-opacity:1;fill-rule:nonzero;stroke:none"
         d="m 83,74 c 0,4.41828 4.47715,8 10,8 5.52285,0 10,-3.58172 10,-8 0,-4.41828 -4.47715,-8 -10,-8 -5.52285,0 -10,3.58172 -10,8 z" /><path
         id="path172"
         style="fill:#86a3c3;fill-opacity:1;fill-rule:nonzero;stroke:none"
         d="m 83,73 h 20 V 43 H 83 Z" /><g
         transform="translate(81.90008,-223)"
         id="g174"><text
           id="text178"
           style="font-variant:normal;font-weight:normal;font-size:10px;font-family:ArialMT;-inkscape-font-specification:ArialMT;writing-mode:lr-tb;fill:#000000;fill-opacity:1;fill-rule:nonzero;stroke:none"
           transform="matrix(1,0,0,-1,0,309)"><tspan
             id="tspan176"
             y="0"
             x="0 6 9 15">0.16</tspan></text>
</g><g
         transform="translate(108.03,-244)"
         id="g180"><text
           id="text184"
           style="font-variant:normal;font-weight:normal;font-size:10px;font-family:ArialMT;-inkscape-font-specification:ArialMT;writing-mode:lr-tb;fill:#000000;fill-opacity:1;fill-rule:nonzero;stroke:none"
           transform="matrix(1,0,0,-1,0,309)"><tspan
             id="tspan182"
             y="0"
             x="0 6 9 15">0.05</tspan></text>
</g><path
         id="path186"
         style="fill:#d8e1bb;fill-opacity:1;fill-rule:nonzero;stroke:none"
         d="m 482,290 h 20 v -11 h -20 z" /><g
         transform="translate(510.0072,-30)"
         id="g188"><text
           id="text192"
           style="font-variant:normal;font-weight:bold;font-size:16px;font-family:Arial;-inkscape-font-specification:Arial-BoldMT;writing-mode:lr-tb;fill:#000000;fill-opacity:1;fill-rule:nonzero;stroke:none"
           transform="matrix(1,0,0,-1,0,309)"><tspan
             id="tspan190"
             y="0"
             x="0 13 16.992001 27 30.992001 42.984001 53.984001">MiniGPT</tspan></text>
</g><g
         transform="translate(574.0071,-30)"
         id="g194"><text
           id="text198"
           style="font-variant:normal;font-weight:bold;font-size:16px;font-family:Arial;-inkscape-font-specification:Arial-BoldMT;writing-mode:lr-tb;fill:#000000;fill-opacity:1;fill-rule:nonzero;stroke:none"
           transform="matrix(1,0,0,-1,0,309)"><tspan
             id="tspan196"
             y="0"
             x="0">-</tspan></text>
</g><g
         transform="translate(579.0071,-30)"
         id="g200"><text
           id="text204"
           style="font-variant:normal;font-weight:bold;font-size:16px;font-family:Arial;-inkscape-font-specification:Arial-BoldMT;writing-mode:lr-tb;fill:#000000;fill-opacity:1;fill-rule:nonzero;stroke:none"
           transform="matrix(1,0,0,-1,0,309)"><tspan
             id="tspan202"
             y="0"
             x="0">4</tspan></text>
</g><path
         id="path206"
         style="fill:#7268a6;fill-opacity:1;fill-rule:nonzero;stroke:none"
         d="m 60,43 v 7.5 c 0,4.14214 4.25329,7.5 9.5,7.5 5.24671,0 9.5,-3.35786 9.5,-7.5 V 43 Z" /><path
         id="path208"
         style="fill:#b6cec8;fill-opacity:1;fill-rule:nonzero;stroke:none"
         d="m 106,55 c 0,4.41828 4.4772,8 10,8 5.5228,0 10,-3.58172 10,-8 0,-4.41828 -4.4772,-8 -10,-8 -5.5228,0 -10,3.58172 -10,8 z" /><path
         id="path210"
         style="fill:#b6cec8;fill-opacity:1;fill-rule:nonzero;stroke:none"
         d="m 106,56 h 20 V 43 h -20 z" /><path
         id="path212"
         style="fill:#d8e1bb;fill-opacity:1;fill-rule:nonzero;stroke:none"
         d="m 131,55 h 20 V 43 h -20 z" /><path
         id="path214"
         style="fill:#d8e1bb;fill-opacity:1;fill-rule:nonzero;stroke:none"
         d="m 131,54.5 c 0,4.69442 4.4772,8.5 10,8.5 5.5228,0 10,-3.80558 10,-8.5 0,-4.69442 -4.4772,-8.5 -10,-8.5 -5.5228,0 -10,3.80558 -10,8.5 z" /><g
         transform="translate(133.0938,-244)"
         id="g216"><text
           id="text220"
           style="font-variant:normal;font-weight:normal;font-size:10px;font-family:ArialMT;-inkscape-font-specification:ArialMT;writing-mode:lr-tb;fill:#000000;fill-opacity:1;fill-rule:nonzero;stroke:none"
           transform="matrix(1,0,0,-1,0,309)"><tspan
             id="tspan218"
             y="0"
             x="0 6 9 15">0.05</tspan></text>
</g><path
         id="path222"
         style="fill:#6b2f74;fill-opacity:1;fill-rule:nonzero;stroke:none"
         d="m 174,85 c 0,4.41828 4.4772,8 10,8 5.5228,0 10,-3.58172 10,-8 0,-4.41828 -4.4772,-8 -10,-8 -5.5228,0 -10,3.58172 -10,8 z" /><path
         id="path224"
         style="fill:#6b2f74;fill-opacity:1;fill-rule:nonzero;stroke:none"
         d="m 174,84 h 20 V 43 h -20 z" /><g
         transform="translate(175.8352,-213)"
         id="g226"><text
           id="text230"
           style="font-variant:normal;font-weight:normal;font-size:10px;font-family:ArialMT;-inkscape-font-specification:ArialMT;writing-mode:lr-tb;fill:#000000;fill-opacity:1;fill-rule:nonzero;stroke:none"
           transform="matrix(1,0,0,-1,0,309)"><tspan
             id="tspan228"
             y="0"
             x="0 6 9 15">0.20</tspan></text>
</g><path
         id="path232"
         style="fill:#7268a6;fill-opacity:1;fill-rule:nonzero;stroke:none"
         d="m 196,85.5 c 0,4.69442 4.4772,8.5 10,8.5 5.5228,0 10,-3.80558 10,-8.5 0,-4.69442 -4.4772,-8.5 -10,-8.5 -5.5228,0 -10,3.80558 -10,8.5 z" /><path
         id="path234"
         style="fill:#7268a6;fill-opacity:1;fill-rule:nonzero;stroke:none"
         d="m 197,85 h 19 V 43 h -19 z" /><path
         id="path236"
         style="fill:#86a3c3;fill-opacity:1;fill-rule:nonzero;stroke:none"
         d="m 220,85.5 c 0,4.69442 4.2533,8.5 9.5,8.5 5.2467,0 9.5,-3.80558 9.5,-8.5 0,-4.69442 -4.2533,-8.5 -9.5,-8.5 -5.2467,0 -9.5,3.80558 -9.5,8.5 z" /><path
         id="path238"
         style="fill:#86a3c3;fill-opacity:1;fill-rule:nonzero;stroke:none"
         d="m 220,85 h 19 V 43 h -19 z" /><g
         transform="translate(241.4814,-260)"
         id="g240"><text
           id="text244"
           style="font-variant:normal;font-weight:normal;font-size:10px;font-family:ArialMT;-inkscape-font-specification:ArialMT;writing-mode:lr-tb;fill:#000000;fill-opacity:1;fill-rule:nonzero;stroke:none"
           transform="matrix(1,0,0,-1,0,309)"><tspan
             id="tspan242"
             y="0"
             x="0 6 9 15">0.00</tspan></text>
</g><g
         transform="translate(192.4387,-293)"
         id="g246"><text
           id="text250"
           style="font-variant:normal;font-weight:bold;font-size:18px;font-family:Arial;-inkscape-font-specification:Arial-BoldMT;writing-mode:lr-tb;fill:#000000;fill-opacity:1;fill-rule:nonzero;stroke:none"
           transform="matrix(1,0,0,-1,0,309)"><tspan
             id="tspan248"
             y="0"
             x="0 12.9996 18.0072 28.000799 39.002399 50.004002 59.997601">Disgust</tspan></text>
</g><g
         transform="translate(262.7617,-260)"
         id="g252"><text
           id="text256"
           style="font-variant:normal;font-weight:normal;font-size:10px;font-family:ArialMT;-inkscape-font-specification:ArialMT;writing-mode:lr-tb;fill:#000000;fill-opacity:1;fill-rule:nonzero;stroke:none"
           transform="matrix(1,0,0,-1,0,309)"><tspan
             id="tspan254"
             y="0"
             x="0 6 9 15">0.00</tspan></text>
</g><g
         transform="translate(197.5276,-213)"
         id="g258"><text
           id="text262"
           style="font-variant:normal;font-weight:normal;font-size:10px;font-family:ArialMT;-inkscape-font-specification:ArialMT;writing-mode:lr-tb;fill:#000000;fill-opacity:1;fill-rule:nonzero;stroke:none"
           transform="matrix(1,0,0,-1,0,309)"><tspan
             id="tspan260"
             y="0"
             x="0 6 9 15">0.20</tspan></text>
</g><g
         transform="translate(220.8798,-213)"
         id="g264"><text
           id="text268"
           style="font-variant:normal;font-weight:normal;font-size:10px;font-family:ArialMT;-inkscape-font-specification:ArialMT;writing-mode:lr-tb;fill:#000000;fill-opacity:1;fill-rule:nonzero;stroke:none"
           transform="matrix(1,0,0,-1,0,309)"><tspan
             id="tspan266"
             y="0"
             x="0 6 9 15">0.20</tspan></text>
</g><path
         id="path270"
         style="fill:#6b2f74;fill-opacity:1;fill-rule:nonzero;stroke:none"
         d="m 301,60 c 0,4.41828 4.2533,8 9.5,8 5.2467,0 9.5,-3.58172 9.5,-8 0,-4.41828 -4.2533,-8 -9.5,-8 -5.2467,0 -9.5,3.58172 -9.5,8 z" /><path
         id="path272"
         style="fill:#6b2f74;fill-opacity:1;fill-rule:nonzero;stroke:none"
         d="m 301,61 h 19 V 43 h -19 z" /><g
         transform="translate(300.6518,-240)"
         id="g274"><text
           id="text278"
           style="font-variant:normal;font-weight:normal;font-size:10px;font-family:ArialMT;-inkscape-font-specification:ArialMT;writing-mode:lr-tb;fill:#000000;fill-opacity:1;fill-rule:nonzero;stroke:none"
           transform="matrix(1,0,0,-1,0,309)"><tspan
             id="tspan276"
             y="0"
             x="0 6 9 15">0.09</tspan></text>
</g><g
         transform="translate(325.6006,-249)"
         id="g280"><text
           id="text284"
           style="font-variant:normal;font-weight:normal;font-size:10px;font-family:ArialMT;-inkscape-font-specification:ArialMT;writing-mode:lr-tb;fill:#000000;fill-opacity:1;fill-rule:nonzero;stroke:none"
           transform="matrix(1,0,0,-1,0,309)"><tspan
             id="tspan282"
             y="0"
             x="0 6 9 15">0.03</tspan></text>
</g><g
         transform="translate(346.252,-260)"
         id="g286"><text
           id="text290"
           style="font-variant:normal;font-weight:normal;font-size:10px;font-family:ArialMT;-inkscape-font-specification:ArialMT;writing-mode:lr-tb;fill:#000000;fill-opacity:1;fill-rule:nonzero;stroke:none"
           transform="matrix(1,0,0,-1,0,309)"><tspan
             id="tspan288"
             y="0"
             x="0 6 9 15">0.00</tspan></text>
</g><g
         transform="translate(371.1924,-244)"
         id="g292"><text
           id="text296"
           style="font-variant:normal;font-weight:normal;font-size:10px;font-family:ArialMT;-inkscape-font-specification:ArialMT;writing-mode:lr-tb;fill:#000000;fill-opacity:1;fill-rule:nonzero;stroke:none"
           transform="matrix(1,0,0,-1,0,309)"><tspan
             id="tspan294"
             y="0"
             x="0 6 9 15">0.06</tspan></text>
</g><g
         transform="translate(328.3847,-293)"
         id="g298"><text
           id="text302"
           style="font-variant:normal;font-weight:bold;font-size:18px;font-family:Arial;-inkscape-font-specification:Arial-BoldMT;writing-mode:lr-tb;fill:#000000;fill-opacity:1;fill-rule:nonzero;stroke:none"
           transform="matrix(1,0,0,-1,0,309)"><tspan
             id="tspan300"
             y="0"
             x="0 10.9998 20.9916 30.9834">Fear</tspan></text>
</g><path
         id="path304"
         style="fill:#7268a6;fill-opacity:1;fill-rule:nonzero;stroke:none"
         d="m 323,43 v 7.5 c 0,4.14214 4.2533,7.5 9.5,7.5 5.2467,0 9.5,-3.35786 9.5,-7.5 V 43 Z" /><path
         id="path306"
         style="fill:#b6cec8;fill-opacity:1;fill-rule:nonzero;stroke:none"
         d="m 371,55 h 20 V 43 h -20 z" /><path
         id="path308"
         style="fill:#b6cec8;fill-opacity:1;fill-rule:nonzero;stroke:none"
         d="m 371,55 c 0,4.41828 4.4772,8 10,8 5.5228,0 10,-3.58172 10,-8 0,-4.41828 -4.4772,-8 -10,-8 -5.5228,0 -10,3.58172 -10,8 z" /><path
         id="path310"
         style="fill:#d8e1bb;fill-opacity:1;fill-rule:nonzero;stroke:none"
         d="m 394,54 h 20 V 43 h -20 z" /><path
         id="path312"
         style="fill:#d8e1bb;fill-opacity:1;fill-rule:nonzero;stroke:none"
         d="m 394,55.5 c 0,4.69442 4.4772,8.5 10,8.5 5.5228,0 10,-3.80558 10,-8.5 0,-4.69442 -4.4772,-8.5 -10,-8.5 -5.5228,0 -10,3.80558 -10,8.5 z" /><g
         transform="translate(395.1256,-244)"
         id="g314"><text
           id="text318"
           style="font-variant:normal;font-weight:normal;font-size:10px;font-family:ArialMT;-inkscape-font-specification:ArialMT;writing-mode:lr-tb;fill:#000000;fill-opacity:1;fill-rule:nonzero;stroke:none"
           transform="matrix(1,0,0,-1,0,309)"><tspan
             id="tspan316"
             y="0"
             x="0 6 9 15">0.06</tspan></text>
</g><path
         id="path320"
         style="fill:#6b2f74;fill-opacity:1;fill-rule:nonzero;stroke:none"
         d="m 437,163.5 c 0,4.6944 4.2533,8.5 9.5,8.5 5.2467,0 9.5,-3.8056 9.5,-8.5 0,-4.6944 -4.2533,-8.5 -9.5,-8.5 -5.2467,0 -9.5,3.8056 -9.5,8.5 z" /><path
         id="path322"
         style="fill:#6b2f74;fill-opacity:1;fill-rule:nonzero;stroke:none"
         d="m 437,162 h 19 V 43 h -19 z" /><g
         transform="translate(436.644,-135)"
         id="g324"><text
           id="text328"
           style="font-variant:normal;font-weight:normal;font-size:10px;font-family:ArialMT;-inkscape-font-specification:ArialMT;writing-mode:lr-tb;fill:#000000;fill-opacity:1;fill-rule:nonzero;stroke:none"
           transform="matrix(1,0,0,-1,0,309)"><tspan
             id="tspan326"
             y="0"
             x="0 6 9 15">0.50</tspan></text>
</g><path
         id="path330"
         style="fill:#7268a6;fill-opacity:1;fill-rule:nonzero;stroke:none"
         d="m 459,179.5 c 0,4.6944 4.4772,8.5 10,8.5 5.5228,0 10,-3.8056 10,-8.5 0,-4.6944 -4.4772,-8.5 -10,-8.5 -5.5228,0 -10,3.8056 -10,8.5 z" /><path
         id="path332"
         style="fill:#7268a6;fill-opacity:1;fill-rule:nonzero;stroke:none"
         d="m 459,181 h 20 V 43 h -20 z" /><g
         transform="translate(458.6793,-119)"
         id="g334"><text
           id="text338"
           style="font-variant:normal;font-weight:normal;font-size:10px;font-family:ArialMT;-inkscape-font-specification:ArialMT;writing-mode:lr-tb;fill:#000000;fill-opacity:1;fill-rule:nonzero;stroke:none"
           transform="matrix(1,0,0,-1,0,309)"><tspan
             id="tspan336"
             y="0"
             x="0 6 9 15">0.58</tspan></text>
</g><path
         id="path340"
         style="fill:#86a3c3;fill-opacity:1;fill-rule:nonzero;stroke:none"
         d="m 482,143 c 0,4.4183 4.4772,8 10,8 5.5228,0 10,-3.5817 10,-8 0,-4.4183 -4.4772,-8 -10,-8 -5.5228,0 -10,3.5817 -10,8 z" /><path
         id="path342"
         style="fill:#86a3c3;fill-opacity:1;fill-rule:nonzero;stroke:none"
         d="m 482,141 h 20 V 43 h -20 z" /><g
         transform="translate(483.8012,-156)"
         id="g344"><text
           id="text348"
           style="font-variant:normal;font-weight:normal;font-size:10px;font-family:ArialMT;-inkscape-font-specification:ArialMT;writing-mode:lr-tb;fill:#000000;fill-opacity:1;fill-rule:nonzero;stroke:none"
           transform="matrix(1,0,0,-1,0,309)"><tspan
             id="tspan346"
             y="0"
             x="0 6 9 15">0.41</tspan></text>
</g><g
         transform="translate(506.7039,-168)"
         id="g350"><text
           id="text354"
           style="font-variant:normal;font-weight:normal;font-size:10px;font-family:ArialMT;-inkscape-font-specification:ArialMT;writing-mode:lr-tb;fill:#000000;fill-opacity:1;fill-rule:nonzero;stroke:none"
           transform="matrix(1,0,0,-1,0,309)"><tspan
             id="tspan352"
             y="0"
             x="0 6 9 15">0.36</tspan></text>
</g><g
         transform="translate(464.7406,-293)"
         id="g356"><text
           id="text360"
           style="font-variant:normal;font-weight:bold;font-size:18px;font-family:Arial;-inkscape-font-specification:Arial-BoldMT;writing-mode:lr-tb;fill:#000000;fill-opacity:1;fill-rule:nonzero;stroke:none"
           transform="matrix(1,0,0,-1,0,309)"><tspan
             id="tspan358"
             y="0"
             x="0 12.9996 22.9932 33.994801 44.996399">Happy</tspan></text>
</g><path
         id="path362"
         style="fill:#b6cec8;fill-opacity:1;fill-rule:nonzero;stroke:none"
         d="m 505,129.5 c 0,4.6944 4.4772,8.5 10,8.5 5.5228,0 10,-3.8056 10,-8.5 0,-4.6944 -4.4772,-8.5 -10,-8.5 -5.5228,0 -10,3.8056 -10,8.5 z" /><path
         id="path364"
         style="fill:#b6cec8;fill-opacity:1;fill-rule:nonzero;stroke:none"
         d="m 505,129 h 20 V 43 h -20 z" /><path
         id="path366"
         style="fill:#d8e1bb;fill-opacity:1;fill-rule:nonzero;stroke:none"
         d="m 529,109.5 c 0,4.6944 4.2533,8.5 9.5,8.5 5.2467,0 9.5,-3.8056 9.5,-8.5 0,-4.6944 -4.2533,-8.5 -9.5,-8.5 -5.2467,0 -9.5,3.8056 -9.5,8.5 z" /><path
         id="path368"
         style="fill:#d8e1bb;fill-opacity:1;fill-rule:nonzero;stroke:none"
         d="m 529,108 h 19 V 43 h -19 z" /><g
         transform="translate(529.1982,-190)"
         id="g370"><text
           id="text374"
           style="font-variant:normal;font-weight:normal;font-size:10px;font-family:ArialMT;-inkscape-font-specification:ArialMT;writing-mode:lr-tb;fill:#000000;fill-opacity:1;fill-rule:nonzero;stroke:none"
           transform="matrix(1,0,0,-1,0,309)"><tspan
             id="tspan372"
             y="0"
             x="0 6 9 15">0.27</tspan></text>
</g><path
         id="path376"
         style="fill:#6b2f74;fill-opacity:1;fill-rule:nonzero;stroke:none"
         d="m 567,69.5 c 0,4.69442 4.2533,8.5 9.5,8.5 5.2467,0 9.5,-3.80558 9.5,-8.5 0,-4.69442 -4.2533,-8.5 -9.5,-8.5 -5.2467,0 -9.5,3.80558 -9.5,8.5 z" /><path
         id="path378"
         style="fill:#6b2f74;fill-opacity:1;fill-rule:nonzero;stroke:none"
         d="m 567,68 h 19 V 43 h -19 z" /><g
         transform="translate(568.822,-231)"
         id="g380"><text
           id="text384"
           style="font-variant:normal;font-weight:normal;font-size:10px;font-family:ArialMT;-inkscape-font-specification:ArialMT;writing-mode:lr-tb;fill:#000000;fill-opacity:1;fill-rule:nonzero;stroke:none"
           transform="matrix(1,0,0,-1,0,309)"><tspan
             id="tspan382"
             y="0"
             x="0 6 9 15">0.13</tspan></text>
</g><g
         transform="translate(591.1284,-255)"
         id="g386"><text
           id="text390"
           style="font-variant:normal;font-weight:normal;font-size:10px;font-family:ArialMT;-inkscape-font-specification:ArialMT;writing-mode:lr-tb;fill:#000000;fill-opacity:1;fill-rule:nonzero;stroke:none"
           transform="matrix(1,0,0,-1,0,309)"><tspan
             id="tspan388"
             y="0"
             x="0 6 9 15">0.02</tspan></text>
</g><path
         id="path392"
         style="fill:#86a3c3;fill-opacity:1;fill-rule:nonzero;stroke:none"
         d="m 614,51 c 0,4.41828 4.2533,8 9.5,8 5.2467,0 9.5,-3.58172 9.5,-8 0,-4.41828 -4.2533,-8 -9.5,-8 -5.2467,0 -9.5,3.58172 -9.5,8 z" /><path
         id="path394"
         style="fill:#86a3c3;fill-opacity:1;fill-rule:nonzero;stroke:none"
         d="m 614,48 h 19 v -5 h -19 z" /><g
         transform="translate(615.0635,-250)"
         id="g396"><text
           id="text400"
           style="font-variant:normal;font-weight:normal;font-size:10px;font-family:ArialMT;-inkscape-font-specification:ArialMT;writing-mode:lr-tb;fill:#000000;fill-opacity:1;fill-rule:nonzero;stroke:none"
           transform="matrix(1,0,0,-1,0,309)"><tspan
             id="tspan398"
             y="0"
             x="0 6 9 15">0.04</tspan></text>
</g><g
         transform="translate(636.9984,-260)"
         id="g402"><text
           id="text406"
           style="font-variant:normal;font-weight:normal;font-size:10px;font-family:ArialMT;-inkscape-font-specification:ArialMT;writing-mode:lr-tb;fill:#000000;fill-opacity:1;fill-rule:nonzero;stroke:none"
           transform="matrix(1,0,0,-1,0,309)"><tspan
             id="tspan404"
             y="0"
             x="0 6 9 15">0.00</tspan></text>
</g><g
         transform="translate(600.9739,-294)"
         id="g408"><text
           id="text412"
           style="font-variant:normal;font-weight:bold;font-size:18px;font-family:Arial;-inkscape-font-specification:Arial-BoldMT;writing-mode:lr-tb;fill:#000000;fill-opacity:1;fill-rule:nonzero;stroke:none"
           transform="matrix(1,0,0,-1,0,309)"><tspan
             id="tspan410"
             y="0"
             x="0 12.0006 22.003201">Sad</tspan></text>
</g><path
         id="path414"
         style="fill:#7268a6;fill-opacity:1;fill-rule:nonzero;stroke:none"
         d="m 590,43 v 5 c 0,2.76142 4.4772,5 10,5 5.5228,0 10,-2.23858 10,-5 v -5 z" /><path
         id="path416"
         style="fill:#d8e1bb;fill-opacity:1;fill-rule:nonzero;stroke:none"
         d="m 658,90 h 20 V 43 h -20 z" /><g
         transform="translate(659.9038,-207)"
         id="g418"><text
           id="text422"
           style="font-variant:normal;font-weight:normal;font-size:10px;font-family:ArialMT;-inkscape-font-specification:ArialMT;writing-mode:lr-tb;fill:#000000;fill-opacity:1;fill-rule:nonzero;stroke:none"
           transform="matrix(1,0,0,-1,0,309)"><tspan
             id="tspan420"
             y="0"
             x="0 6 9 15">0.22</tspan></text>
</g><path
         id="path424"
         style="fill:#d8e1bb;fill-opacity:1;fill-rule:nonzero;stroke:none"
         d="m 658,89.5 c 0,4.69442 4.4772,8.5 10,8.5 5.5228,0 10,-3.80558 10,-8.5 0,-4.69442 -4.4772,-8.5 -10,-8.5 -5.5228,0 -10,3.80558 -10,8.5 z" /><path
         id="path426"
         style="fill:#6b2f74;fill-opacity:1;fill-rule:nonzero;stroke:none"
         d="m 700,109.5 c 0,4.6944 4.2533,8.5 9.5,8.5 5.2467,0 9.5,-3.8056 9.5,-8.5 0,-4.6944 -4.2533,-8.5 -9.5,-8.5 -5.2467,0 -9.5,3.8056 -9.5,8.5 z" /><path
         id="path428"
         style="fill:#6b2f74;fill-opacity:1;fill-rule:nonzero;stroke:none"
         d="m 700,109 h 19 V 43 h -19 z" /><g
         transform="translate(701.6857,-188)"
         id="g430"><text
           id="text434"
           style="font-variant:normal;font-weight:normal;font-size:10px;font-family:ArialMT;-inkscape-font-specification:ArialMT;writing-mode:lr-tb;fill:#000000;fill-opacity:1;fill-rule:nonzero;stroke:none"
           transform="matrix(1,0,0,-1,0,309)"><tspan
             id="tspan432"
             y="0"
             x="0 6 9 15">0.26</tspan></text>
</g><path
         id="path436"
         style="fill:#7268a6;fill-opacity:1;fill-rule:nonzero;stroke:none"
         d="m 723,110.5 c 0,4.6944 4.2533,8.5 9.5,8.5 5.2467,0 9.5,-3.8056 9.5,-8.5 0,-4.6944 -4.2533,-8.5 -9.5,-8.5 -5.2467,0 -9.5,3.8056 -9.5,8.5 z" /><path
         id="path438"
         style="fill:#7268a6;fill-opacity:1;fill-rule:nonzero;stroke:none"
         d="m 723,110 h 20 V 43 h -20 z" /><g
         transform="translate(723.3365,-188)"
         id="g440"><text
           id="text444"
           style="font-variant:normal;font-weight:normal;font-size:10px;font-family:ArialMT;-inkscape-font-specification:ArialMT;writing-mode:lr-tb;fill:#000000;fill-opacity:1;fill-rule:nonzero;stroke:none"
           transform="matrix(1,0,0,-1,0,309)"><tspan
             id="tspan442"
             y="0"
             x="0 6 9 15">0.26</tspan></text>
</g><g
         transform="translate(745.0259,-260)"
         id="g446"><text
           id="text450"
           style="font-variant:normal;font-weight:normal;font-size:10px;font-family:ArialMT;-inkscape-font-specification:ArialMT;writing-mode:lr-tb;fill:#000000;fill-opacity:1;fill-rule:nonzero;stroke:none"
           transform="matrix(1,0,0,-1,0,309)"><tspan
             id="tspan448"
             y="0"
             x="0 6 9 15">0.00</tspan></text>
</g><g
         transform="translate(791.2844,-220)"
         id="g452"><text
           id="text456"
           style="font-variant:normal;font-weight:normal;font-size:10px;font-family:ArialMT;-inkscape-font-specification:ArialMT;writing-mode:lr-tb;fill:#000000;fill-opacity:1;fill-rule:nonzero;stroke:none"
           transform="matrix(1,0,0,-1,0,309)"><tspan
             id="tspan454"
             y="0"
             x="0 6 9 15">0.15</tspan></text>
</g><g
         transform="translate(714.6765,-293)"
         id="g458"><text
           id="text462"
           style="font-variant:normal;font-weight:bold;font-size:18px;font-family:Arial;-inkscape-font-specification:Arial-BoldMT;writing-mode:lr-tb;fill:#000000;fill-opacity:1;fill-rule:nonzero;stroke:none"
           transform="matrix(1,0,0,-1,0,309)"><tspan
             id="tspan460"
             y="0"
             x="0 12.0006 22.9932 29.989799 40.982399 47.979 52.9776 62.980202">Surprise</tspan></text>
</g><path
         id="path464"
         style="fill:#d8e1bb;fill-opacity:1;fill-rule:nonzero;stroke:none"
         d="m 789,77 c 0,4.41828 4.4772,8 10,8 5.5228,0 10,-3.58172 10,-8 0,-4.41828 -4.4772,-8 -10,-8 -5.5228,0 -10,3.58172 -10,8 z" /><path
         id="path466"
         style="fill:#d8e1bb;fill-opacity:1;fill-rule:nonzero;stroke:none"
         d="m 789,76 h 20 V 43 h -20 z" /><g
         transform="translate(767.6701,-260)"
         id="g468"><text
           id="text472"
           style="font-variant:normal;font-weight:normal;font-size:10px;font-family:ArialMT;-inkscape-font-specification:ArialMT;writing-mode:lr-tb;fill:#000000;fill-opacity:1;fill-rule:nonzero;stroke:none"
           transform="matrix(1,0,0,-1,0,309)"><tspan
             id="tspan470"
             y="0"
             x="0 6 9 15">0.00</tspan></text>
</g><path
         id="path474"
         style="fill:#6b2f74;fill-opacity:1;fill-rule:nonzero;stroke:none"
         d="m 829,279.5 c 0,4.6944 4.2533,8.5 9.5,8.5 5.2467,0 9.5,-3.8056 9.5,-8.5 0,-4.6944 -4.2533,-8.5 -9.5,-8.5 -5.2467,0 -9.5,3.8056 -9.5,8.5 z" /><path
         id="path476"
         style="fill:#6b2f74;fill-opacity:1;fill-rule:nonzero;stroke:none"
         d="m 829,280 h 19 V 43 h -19 z" /><g
         transform="translate(829.7316,-20)"
         id="g478"><text
           id="text482"
           style="font-variant:normal;font-weight:normal;font-size:10px;font-family:ArialMT;-inkscape-font-specification:ArialMT;writing-mode:lr-tb;fill:#000000;fill-opacity:1;fill-rule:nonzero;stroke:none"
           transform="matrix(1,0,0,-1,0,309)"><tspan
             id="tspan480"
             y="0"
             x="0 6 9 15">0.89</tspan></text>
</g><path
         id="path484"
         style="fill:#7268a6;fill-opacity:1;fill-rule:nonzero;stroke:none"
         d="m 852,204.5 c 0,4.6944 4.4772,8.5 10,8.5 5.5228,0 10,-3.8056 10,-8.5 0,-4.6944 -4.4772,-8.5 -10,-8.5 -5.5228,0 -10,3.8056 -10,8.5 z" /><path
         id="path486"
         style="fill:#7268a6;fill-opacity:1;fill-rule:nonzero;stroke:none"
         d="m 852,205 h 20 V 43 h -20 z" /><g
         transform="translate(852.6323,-95)"
         id="g488"><text
           id="text492"
           style="font-variant:normal;font-weight:normal;font-size:10px;font-family:ArialMT;-inkscape-font-specification:ArialMT;writing-mode:lr-tb;fill:#000000;fill-opacity:1;fill-rule:nonzero;stroke:none"
           transform="matrix(1,0,0,-1,0,309)"><tspan
             id="tspan490"
             y="0"
             x="0 6 9 15">0.65</tspan></text>
</g><path
         id="path494"
         style="fill:#86a3c3;fill-opacity:1;fill-rule:nonzero;stroke:none"
         d="m 875,103 c 0,4.4183 4.4772,8 10,8 5.5228,0 10,-3.5817 10,-8 0,-4.41828 -4.4772,-8 -10,-8 -5.5228,0 -10,3.58172 -10,8 z" /><path
         id="path496"
         style="fill:#86a3c3;fill-opacity:1;fill-rule:nonzero;stroke:none"
         d="m 875,102 h 20 V 43 h -20 z" /><g
         transform="translate(875.6461,-197)"
         id="g498"><text
           id="text502"
           style="font-variant:normal;font-weight:normal;font-size:10px;font-family:ArialMT;-inkscape-font-specification:ArialMT;writing-mode:lr-tb;fill:#000000;fill-opacity:1;fill-rule:nonzero;stroke:none"
           transform="matrix(1,0,0,-1,0,309)"><tspan
             id="tspan500"
             y="0"
             x="0 6 9 15">0.24</tspan></text>
</g><g
         transform="translate(899.8152,-220)"
         id="g504"><text
           id="text508"
           style="font-variant:normal;font-weight:normal;font-size:10px;font-family:ArialMT;-inkscape-font-specification:ArialMT;writing-mode:lr-tb;fill:#000000;fill-opacity:1;fill-rule:nonzero;stroke:none"
           transform="matrix(1,0,0,-1,0,309)"><tspan
             id="tspan506"
             y="0"
             x="0 6 9 15">0.15</tspan></text>
</g><g
         transform="translate(849.0433,-293)"
         id="g510"><text
           id="text514"
           style="font-variant:normal;font-weight:bold;font-size:18px;font-family:Arial;-inkscape-font-specification:Arial-BoldMT;writing-mode:lr-tb;fill:#000000;fill-opacity:1;fill-rule:nonzero;stroke:none"
           transform="matrix(1,0,0,-1,0,309)"><tspan
             id="tspan512"
             y="0"
             x="0 12.9996 22.9932 33.994801 39.992401 46.998001 56.9916">Neutral</tspan></text>
</g><path
         id="path516"
         style="fill:#b6cec8;fill-opacity:1;fill-rule:nonzero;stroke:none"
         d="m 898,78.5 c 0,4.69442 4.4772,8.5 10,8.5 5.5228,0 10,-3.80558 10,-8.5 0,-4.69442 -4.4772,-8.5 -10,-8.5 -5.5228,0 -10,3.80558 -10,8.5 z" /><path
         id="path518"
         style="fill:#b6cec8;fill-opacity:1;fill-rule:nonzero;stroke:none"
         d="m 898,77 h 20 V 43 h -20 z" /><path
         id="path520"
         style="fill:#d8e1bb;fill-opacity:1;fill-rule:nonzero;stroke:none"
         d="m 921,114 h 20 V 43 h -20 z" /><g
         transform="translate(920.5753,-185)"
         id="g522"><text
           id="text526"
           style="font-variant:normal;font-weight:normal;font-size:10px;font-family:ArialMT;-inkscape-font-specification:ArialMT;writing-mode:lr-tb;fill:#000000;fill-opacity:1;fill-rule:nonzero;stroke:none"
           transform="matrix(1,0,0,-1,0,309)"><tspan
             id="tspan524"
             y="0"
             x="0 6 9 15">0.29</tspan></text>
</g><path
         id="path528"
         style="fill:#d8e1bb;fill-opacity:1;fill-rule:nonzero;stroke:none"
         d="m 921,114 c 0,4.4183 4.4772,8 10,8 5.5228,0 10,-3.5817 10,-8 0,-4.4183 -4.4772,-8 -10,-8 -5.5228,0 -10,3.5817 -10,8 z" /></g></g></svg>