<?xml version="1.0" encoding="UTF-8" standalone="no"?>
<svg
   xmlns:dc="http://purl.org/dc/elements/1.1/"
   xmlns:cc="http://creativecommons.org/ns#"
   xmlns:rdf="http://www.w3.org/1999/02/22-rdf-syntax-ns#"
   xmlns:svg="http://www.w3.org/2000/svg"
   xmlns="http://www.w3.org/2000/svg"
   viewBox="0 0 1229.3333 457.33334"
   height="457.33334"
   width="1229.3333"
   xml:space="preserve"
   id="svg2"
   version="1.1"><metadata
     id="metadata8"><rdf:RDF><cc:Work
         rdf:about=""><dc:format>image/svg+xml</dc:format><dc:type
           rdf:resource="http://purl.org/dc/dcmitype/StillImage" /></cc:Work></rdf:RDF></metadata><defs
     id="defs6"><clipPath
       id="clipPath20"
       clipPathUnits="userSpaceOnUse"><path
         id="path18"
         d="M 0,0 H 922 V 343 H 0 Z" /></clipPath></defs><g
     transform="matrix(1.3333333,0,0,-1.3333333,0,457.33333)"
     id="g10"><g
       id="g12" /><g
       id="g14"><g
         clip-path="url(#clipPath20)"
         id="g16"><path
           id="path22"
           style="fill:#ffffff;fill-opacity:1;fill-rule:nonzero;stroke:none"
           d="M 0,343 H 922 V 0 H 0 Z" /></g></g><g
       id="g24"><g
         transform="matrix(7.874016e-5,0,0,-7.874016e-5,3,342)"
         id="g26"><path
           id="path28"
           style="fill:none;stroke:#0c445e;stroke-width:28575;stroke-linecap:butt;stroke-linejoin:miter;stroke-miterlimit:8;stroke-dasharray:none;stroke-opacity:1"
           d="M 0,0 H 11658600 V 4216400 H 0 Z" /></g><g
         transform="translate(10.10236,-307)"
         id="g30"><text
           id="text34"
           style="font-variant:normal;font-weight:normal;font-size:16px;font-family:ArialMT;-inkscape-font-specification:ArialMT;writing-mode:lr-tb;fill:#000000;fill-opacity:1;fill-rule:nonzero;stroke:none"
           transform="matrix(1,0,0,-1,0,343)"><tspan
             id="tspan32"
             y="0"
             x="0 9 12.992">0.0</tspan></text>
</g><g
         transform="translate(10.10236,-77)"
         id="g36"><text
           id="text40"
           style="font-variant:normal;font-weight:normal;font-size:16px;font-family:ArialMT;-inkscape-font-specification:ArialMT;writing-mode:lr-tb;fill:#000000;fill-opacity:1;fill-rule:nonzero;stroke:none"
           transform="matrix(1,0,0,-1,0,343)"><tspan
             id="tspan38"
             y="0"
             x="0 9 12.992">0.8</tspan></text>
</g><g
         transform="translate(10.10236,-133)"
         id="g42"><text
           id="text46"
           style="font-variant:normal;font-weight:normal;font-size:16px;font-family:ArialMT;-inkscape-font-specification:ArialMT;writing-mode:lr-tb;fill:#000000;fill-opacity:1;fill-rule:nonzero;stroke:none"
           transform="matrix(1,0,0,-1,0,343)"><tspan
             id="tspan44"
             y="0"
             x="0 9 12.992">0.6</tspan></text>
</g><g
         transform="translate(10.10236,-192)"
         id="g48"><text
           id="text52"
           style="font-variant:normal;font-weight:normal;font-size:16px;font-family:ArialMT;-inkscape-font-specification:ArialMT;writing-mode:lr-tb;fill:#000000;fill-opacity:1;fill-rule:nonzero;stroke:none"
           transform="matrix(1,0,0,-1,0,343)"><tspan
             id="tspan50"
             y="0"
             x="0 9 12.992">0.4</tspan></text>
</g><g
         transform="translate(10.10236,-248)"
         id="g54"><text
           id="text58"
           style="font-variant:normal;font-weight:normal;font-size:16px;font-family:ArialMT;-inkscape-font-specification:ArialMT;writing-mode:lr-tb;fill:#000000;fill-opacity:1;fill-rule:nonzero;stroke:none"
           transform="matrix(1,0,0,-1,0,343)"><tspan
             id="tspan56"
             y="0"
             x="0 9 12.992">0.2</tspan></text>
</g><g
         transform="matrix(7.874016e-5,0,0,-7.874016e-5,46,272)"
         id="g60"><path
           id="path62"
           style="fill:none;stroke:#bfbfbf;stroke-width:19050;stroke-linecap:butt;stroke-linejoin:miter;stroke-miterlimit:8;stroke-dasharray:none;stroke-opacity:1"
           d="M 0,0 10908000,1" /></g><g
         transform="matrix(7.874016e-5,0,0,-7.874016e-5,46,215)"
         id="g64"><path
           id="path66"
           style="fill:none;stroke:#bfbfbf;stroke-width:19050;stroke-linecap:butt;stroke-linejoin:miter;stroke-miterlimit:8;stroke-dasharray:none;stroke-opacity:1"
           d="M 0,0 10908000,1" /></g><g
         transform="matrix(7.874016e-5,0,0,-7.874016e-5,46,157)"
         id="g68"><path
           id="path70"
           style="fill:none;stroke:#bfbfbf;stroke-width:19050;stroke-linecap:butt;stroke-linejoin:miter;stroke-miterlimit:8;stroke-dasharray:none;stroke-opacity:1"
           d="M 0,0 10908000,1" /></g><g
         transform="matrix(7.874016e-5,0,0,-7.874016e-5,46,100)"
         id="g72"><path
           id="path74"
           style="fill:none;stroke:#bfbfbf;stroke-width:19050;stroke-linecap:butt;stroke-linejoin:miter;stroke-miterlimit:8;stroke-dasharray:none;stroke-opacity:1"
           d="M 0,0 10908000,1" /></g><g
         transform="matrix(7.874016e-5,0,0,-7.874016e-5,46,43)"
         id="g76"><path
           id="path78"
           style="fill:none;stroke:#bfbfbf;stroke-width:19050;stroke-linecap:butt;stroke-linejoin:miter;stroke-miterlimit:8;stroke-dasharray:none;stroke-opacity:1"
           d="M 0,0 10908000,1" /></g><g
         transform="translate(57.28968,-328)"
         id="g80"><text
           id="text84"
           style="font-variant:normal;font-weight:bold;font-size:18px;font-family:Arial;-inkscape-font-specification:Arial-BoldMT;writing-mode:lr-tb;fill:#000000;fill-opacity:1;fill-rule:nonzero;stroke:none"
           transform="matrix(1,0,0,-1,0,343)"><tspan
             id="tspan82"
             y="0"
             x="0 12.9996 24.0012 35.0028 42.0084">Angry</tspan></text>
</g><g
         transform="translate(181.7318,-31)"
         id="g86"><text
           id="text90"
           style="font-variant:normal;font-weight:bold;font-size:16px;font-family:Arial;-inkscape-font-specification:Arial-BoldMT;writing-mode:lr-tb;fill:#000000;fill-opacity:1;fill-rule:nonzero;stroke:none"
           transform="matrix(1,0,0,-1,0,343)"><tspan
             id="tspan88"
             y="0"
             x="0 12 20.992001 30.992001 42.992001 46.992001 52.992001 61.984001 65.984001">RedCircle</tspan></text>
</g><path
         id="path92"
         style="fill:#73a4a8;fill-opacity:1;fill-rule:nonzero;stroke:none"
         d="m 144,324 h 23 v -11 h -23 z" /><path
         id="path94"
         style="fill:#ed9d99;fill-opacity:1;fill-rule:nonzero;stroke:none"
         d="m 284,324 h 23 v -11 h -23 z" /><g
         transform="translate(321.5061,-31)"
         id="g96"><text
           id="text100"
           style="font-variant:normal;font-weight:bold;font-size:16px;font-family:Arial;-inkscape-font-specification:Arial-BoldMT;writing-mode:lr-tb;fill:#000000;fill-opacity:1;fill-rule:nonzero;stroke:none"
           transform="matrix(1,0,0,-1,0,343)"><tspan
             id="tspan98"
             y="0"
             x="0 12 20.992001 32.992001 42.992001 46.992001">ReCLIP</tspan></text>
</g><path
         id="path102"
         style="fill:#646198;fill-opacity:1;fill-rule:nonzero;stroke:none"
         d="M 7,324 H 30 V 313 H 7 Z" /><g
         transform="translate(44.70716,-31)"
         id="g104"><text
           id="text108"
           style="font-variant:normal;font-weight:bold;font-size:16px;font-family:Arial;-inkscape-font-specification:Arial-BoldMT;writing-mode:lr-tb;fill:#000000;fill-opacity:1;fill-rule:nonzero;stroke:none"
           transform="matrix(1,0,0,-1,0,343)"><tspan
             id="tspan106"
             y="0"
             x="0 11 20.992001">SoV</tspan></text>
</g><g
         transform="translate(76.70717,-31)"
         id="g110"><text
           id="text114"
           style="font-variant:normal;font-weight:bold;font-size:16px;font-family:Arial;-inkscape-font-specification:Arial-BoldMT;writing-mode:lr-tb;fill:#000000;fill-opacity:1;fill-rule:nonzero;stroke:none"
           transform="matrix(1,0,0,-1,0,343)"><tspan
             id="tspan112"
             y="0"
             x="0 5 16.992001 27 33.007999 42.007999">(Ours)</tspan></text>
</g><path
         id="path116"
         style="fill:#646198;fill-opacity:1;fill-rule:nonzero;stroke:none"
         d="m 179,93 h 22 V 42 h -22 z" /><g
         transform="translate(179.9293,-327)"
         id="g118"><text
           id="text122"
           style="font-variant:normal;font-weight:bold;font-size:18px;font-family:Arial;-inkscape-font-specification:Arial-BoldMT;writing-mode:lr-tb;fill:#000000;fill-opacity:1;fill-rule:nonzero;stroke:none"
           transform="matrix(1,0,0,-1,0,343)"><tspan
             id="tspan120"
             y="0"
             x="0 12.9996 18.0072 28.000799 39.002399 50.004002 59.997601">Disgust</tspan></text>
</g><g
         transform="translate(311.9234,-326)"
         id="g124"><text
           id="text128"
           style="font-variant:normal;font-weight:bold;font-size:18px;font-family:Arial;-inkscape-font-specification:Arial-BoldMT;writing-mode:lr-tb;fill:#000000;fill-opacity:1;fill-rule:nonzero;stroke:none"
           transform="matrix(1,0,0,-1,0,343)"><tspan
             id="tspan126"
             y="0"
             x="0 10.9998 20.9916 30.9834">Fear</tspan></text>
</g><g
         transform="translate(425.2668,-327)"
         id="g130"><text
           id="text134"
           style="font-variant:normal;font-weight:bold;font-size:18px;font-family:Arial;-inkscape-font-specification:Arial-BoldMT;writing-mode:lr-tb;fill:#000000;fill-opacity:1;fill-rule:nonzero;stroke:none"
           transform="matrix(1,0,0,-1,0,343)"><tspan
             id="tspan132"
             y="0"
             x="0 12.9996 22.9932 33.994801 44.996399">Happy</tspan></text>
</g><g
         transform="translate(567.6932,-329)"
         id="g136"><text
           id="text140"
           style="font-variant:normal;font-weight:bold;font-size:18px;font-family:Arial;-inkscape-font-specification:Arial-BoldMT;writing-mode:lr-tb;fill:#000000;fill-opacity:1;fill-rule:nonzero;stroke:none"
           transform="matrix(1,0,0,-1,0,343)"><tspan
             id="tspan138"
             y="0"
             x="0 12.0006 22.003201">Sad</tspan></text>
</g><g
         transform="translate(675.5638,-326)"
         id="g142"><text
           id="text146"
           style="font-variant:normal;font-weight:bold;font-size:18px;font-family:Arial;-inkscape-font-specification:Arial-BoldMT;writing-mode:lr-tb;fill:#000000;fill-opacity:1;fill-rule:nonzero;stroke:none"
           transform="matrix(1,0,0,-1,0,343)"><tspan
             id="tspan144"
             y="0"
             x="0 12.0006 22.9932 29.989799 40.982399 47.979 52.9776 62.980202">Surprise</tspan></text>
</g><g
         transform="translate(810.2761,-328)"
         id="g148"><text
           id="text152"
           style="font-variant:normal;font-weight:bold;font-size:18px;font-family:Arial;-inkscape-font-specification:Arial-BoldMT;writing-mode:lr-tb;fill:#000000;fill-opacity:1;fill-rule:nonzero;stroke:none"
           transform="matrix(1,0,0,-1,0,343)"><tspan
             id="tspan150"
             y="0"
             x="0 12.9996 22.9932 33.994801 39.992401 46.998001 56.9916">Neutral</tspan></text>
</g><path
         id="path154"
         style="fill:#ed9d99;fill-opacity:1;fill-rule:nonzero;stroke:none"
         d="m 99,100 h 22 V 44 H 99 Z" /><path
         id="path156"
         style="fill:#ed9d99;fill-opacity:1;fill-rule:nonzero;stroke:none"
         d="m 99,99.5 c 0,4.6944 4.9249,8.5 11,8.5 6.0751,0 11,-3.8056 11,-8.5 0,-4.69442 -4.9249,-8.5 -11,-8.5 -6.0751,0 -11,3.80558 -11,8.5 z" /><path
         id="path158"
         style="fill:#73a4a8;fill-opacity:1;fill-rule:nonzero;stroke:none"
         d="M 72,87 H 94 V 44 H 72 Z" /><path
         id="path160"
         style="fill:#73a4a8;fill-opacity:1;fill-rule:nonzero;stroke:none"
         d="m 72,86.5 c 0,4.69442 4.92487,8.5 11,8.5 6.07513,0 11,-3.80558 11,-8.5 C 94,81.80558 89.07513,78 83,78 76.92487,78 72,81.80558 72,86.5 Z" /><path
         id="path162"
         style="fill:#646198;fill-opacity:1;fill-rule:nonzero;stroke:none"
         d="M 45,103 H 67 V 44 H 45 Z" /><path
         id="path164"
         style="fill:#646198;fill-opacity:1;fill-rule:nonzero;stroke:none"
         d="m 45,105 c 0,4.4183 4.92487,8 11,8 6.07513,0 11,-3.5817 11,-8 0,-4.4183 -4.92487,-8 -11,-8 -6.07513,0 -11,3.5817 -11,8 z" /><path
         id="path166"
         style="fill:#646198;fill-opacity:1;fill-rule:nonzero;stroke:none"
         d="m 179,93 c 0,4.41828 4.9249,8 11,8 6.0751,0 11,-3.58172 11,-8 0,-4.41828 -4.9249,-8 -11,-8 -6.0751,0 -11,3.58172 -11,8 z" /><path
         id="path168"
         style="fill:#ed9d99;fill-opacity:1;fill-rule:nonzero;stroke:none"
         d="m 344,42 v 4.5 c 0,2.48528 4.9249,4.5 11,4.5 6.0751,0 11,-2.01472 11,-4.5 V 42 Z" /><path
         id="path170"
         style="fill:#73a4a8;fill-opacity:1;fill-rule:nonzero;stroke:none"
         d="m 317,42 v 4.5 c 0,2.48528 4.9249,4.5 11,4.5 6.0751,0 11,-2.01472 11,-4.5 V 42 Z" /><path
         id="path172"
         style="fill:#646198;fill-opacity:1;fill-rule:nonzero;stroke:none"
         d="m 290,59 h 22 V 42 h -22 z" /><path
         id="path174"
         style="fill:#646198;fill-opacity:1;fill-rule:nonzero;stroke:none"
         d="m 290,60.5 c 0,4.69442 4.9249,8.5 11,8.5 6.0751,0 11,-3.80558 11,-8.5 0,-4.69442 -4.9249,-8.5 -11,-8.5 -6.0751,0 -11,3.80558 -11,8.5 z" /><path
         id="path176"
         style="fill:#ed9d99;fill-opacity:1;fill-rule:nonzero;stroke:none"
         d="m 468,163 h 22 V 42 h -22 z" /><path
         id="path178"
         style="fill:#ed9d99;fill-opacity:1;fill-rule:nonzero;stroke:none"
         d="m 468,163.5 c 0,4.6944 4.9249,8.5 11,8.5 6.0751,0 11,-3.8056 11,-8.5 0,-4.6944 -4.9249,-8.5 -11,-8.5 -6.0751,0 -11,3.8056 -11,8.5 z" /><path
         id="path180"
         style="fill:#73a4a8;fill-opacity:1;fill-rule:nonzero;stroke:none"
         d="m 441,149 h 22 V 42 h -22 z" /><path
         id="path182"
         style="fill:#73a4a8;fill-opacity:1;fill-rule:nonzero;stroke:none"
         d="m 441,147.5 c 0,4.6944 4.9249,8.5 11,8.5 6.0751,0 11,-3.8056 11,-8.5 0,-4.6944 -4.9249,-8.5 -11,-8.5 -6.0751,0 -11,3.8056 -11,8.5 z" /><path
         id="path184"
         style="fill:#646198;fill-opacity:1;fill-rule:nonzero;stroke:none"
         d="m 413,177 h 22 V 42 h -22 z" /><path
         id="path186"
         style="fill:#646198;fill-opacity:1;fill-rule:nonzero;stroke:none"
         d="m 413,178.5 c 0,4.6944 4.9249,8.5 11,8.5 6.0751,0 11,-3.8056 11,-8.5 0,-4.6944 -4.9249,-8.5 -11,-8.5 -6.0751,0 -11,3.8056 -11,8.5 z" /><path
         id="path188"
         style="fill:#ed9d99;fill-opacity:1;fill-rule:nonzero;stroke:none"
         d="m 597,61 h 22 V 42 h -22 z" /><path
         id="path190"
         style="fill:#ed9d99;fill-opacity:1;fill-rule:nonzero;stroke:none"
         d="m 597,59.5 c 0,4.69442 4.9249,8.5 11,8.5 6.0751,0 11,-3.80558 11,-8.5 0,-4.69442 -4.9249,-8.5 -11,-8.5 -6.0751,0 -11,3.80558 -11,8.5 z" /><path
         id="path192"
         style="fill:#73a4a8;fill-opacity:1;fill-rule:nonzero;stroke:none"
         d="m 570,69 h 23 V 42 h -23 z" /><path
         id="path194"
         style="fill:#73a4a8;fill-opacity:1;fill-rule:nonzero;stroke:none"
         d="m 570,70 c 0,4.41828 5.1487,8 11.5,8 6.3513,0 11.5,-3.58172 11.5,-8 0,-4.41828 -5.1487,-8 -11.5,-8 -6.3513,0 -11.5,3.58172 -11.5,8 z" /><path
         id="path196"
         style="fill:#646198;fill-opacity:1;fill-rule:nonzero;stroke:none"
         d="m 544,72 h 22 V 42 h -22 z" /><path
         id="path198"
         style="fill:#646198;fill-opacity:1;fill-rule:nonzero;stroke:none"
         d="m 544,72.5 c 0,4.69442 4.9249,8.5 11,8.5 6.0751,0 11,-3.80558 11,-8.5 0,-4.69442 -4.9249,-8.5 -11,-8.5 -6.0751,0 -11,3.80558 -11,8.5 z" /><path
         id="path200"
         style="fill:#ed9d99;fill-opacity:1;fill-rule:nonzero;stroke:none"
         d="m 724,119 h 22 V 42 h -22 z" /><path
         id="path202"
         style="fill:#ed9d99;fill-opacity:1;fill-rule:nonzero;stroke:none"
         d="m 724,120.5 c 0,4.6944 4.9249,8.5 11,8.5 6.0751,0 11,-3.8056 11,-8.5 0,-4.6944 -4.9249,-8.5 -11,-8.5 -6.0751,0 -11,3.8056 -11,8.5 z" /><path
         id="path204"
         style="fill:#73a4a8;fill-opacity:1;fill-rule:nonzero;stroke:none"
         d="m 697,139 h 22 V 42 h -22 z" /><path
         id="path206"
         style="fill:#73a4a8;fill-opacity:1;fill-rule:nonzero;stroke:none"
         d="m 697,139 c 0,4.4183 4.9249,8 11,8 6.0751,0 11,-3.5817 11,-8 0,-4.4183 -4.9249,-8 -11,-8 -6.0751,0 -11,3.5817 -11,8 z" /><path
         id="path208"
         style="fill:#646198;fill-opacity:1;fill-rule:nonzero;stroke:none"
         d="m 671,108 h 22 V 42 h -22 z" /><path
         id="path210"
         style="fill:#646198;fill-opacity:1;fill-rule:nonzero;stroke:none"
         d="m 671,108.5 c 0,4.6944 4.9249,8.5 11,8.5 6.0751,0 11,-3.8056 11,-8.5 0,-4.6944 -4.9249,-8.5 -11,-8.5 -6.0751,0 -11,3.8056 -11,8.5 z" /><path
         id="path212"
         style="fill:#ed9d99;fill-opacity:1;fill-rule:nonzero;stroke:none"
         d="m 856,259 h 22 V 42 h -22 z" /><path
         id="path214"
         style="fill:#ed9d99;fill-opacity:1;fill-rule:nonzero;stroke:none"
         d="m 856,258 c 0,4.4183 4.9249,8 11,8 6.0751,0 11,-3.5817 11,-8 0,-4.4183 -4.9249,-8 -11,-8 -6.0751,0 -11,3.5817 -11,8 z" /><path
         id="path216"
         style="fill:#73a4a8;fill-opacity:1;fill-rule:nonzero;stroke:none"
         d="m 829,272 h 22 V 42 h -22 z" /><path
         id="path218"
         style="fill:#73a4a8;fill-opacity:1;fill-rule:nonzero;stroke:none"
         d="m 829,270 c 0,4.4183 4.9249,8 11,8 6.0751,0 11,-3.5817 11,-8 0,-4.4183 -4.9249,-8 -11,-8 -6.0751,0 -11,3.5817 -11,8 z" /><path
         id="path220"
         style="fill:#646198;fill-opacity:1;fill-rule:nonzero;stroke:none"
         d="m 801,290 h 23 V 42 h -23 z" /><path
         id="path222"
         style="fill:#646198;fill-opacity:1;fill-rule:nonzero;stroke:none"
         d="m 801,290.5 c 0,4.6944 5.1487,8.5 11.5,8.5 6.3513,0 11.5,-3.8056 11.5,-8.5 0,-4.6944 -5.1487,-8.5 -11.5,-8.5 -6.3513,0 -11.5,3.8056 -11.5,8.5 z" /></g></g></svg>